<mxfile host="app.diagrams.net" modified="2020-03-27T06:48:02.810Z" agent="Mozilla/5.0 (Windows NT 10.0; Win64; x64) AppleWebKit/537.36 (KHTML, like Gecko) Chrome/80.0.3987.149 Safari/537.36" etag="5eY1PH41JyBYDIGgBzON" version="12.9.3" type="github">
  <diagram id="2fk5DgIQQHhP5_CmqkhY" name="Page-1">
    <mxGraphModel dx="1038" dy="588" grid="1" gridSize="10" guides="1" tooltips="1" connect="1" arrows="1" fold="1" page="1" pageScale="1" pageWidth="850" pageHeight="1100" math="0" shadow="0">
      <root>
        <mxCell id="0" />
        <mxCell id="1" parent="0" />
        <mxCell id="JkOQcNX3NpkATMXgRWnM-1" value="EmailAddress" style="swimlane;fontStyle=0;childLayout=stackLayout;horizontal=1;startSize=26;fillColor=none;horizontalStack=0;resizeParent=1;resizeParentMax=0;resizeLast=0;collapsible=1;marginBottom=0;" parent="1" vertex="1">
          <mxGeometry x="380" y="20" width="200" height="78" as="geometry" />
        </mxCell>
        <mxCell id="JkOQcNX3NpkATMXgRWnM-2" value="+ Key: char1" style="text;strokeColor=none;fillColor=none;align=left;verticalAlign=top;spacingLeft=4;spacingRight=4;overflow=hidden;rotatable=0;points=[[0,0.5],[1,0.5]];portConstraint=eastwest;" parent="JkOQcNX3NpkATMXgRWnM-1" vertex="1">
          <mxGeometry y="26" width="200" height="26" as="geometry" />
        </mxCell>
        <mxCell id="JkOQcNX3NpkATMXgRWnM-3" value="+ EmailAddress: AD_SMTPADR" style="text;strokeColor=none;fillColor=none;align=left;verticalAlign=top;spacingLeft=4;spacingRight=4;overflow=hidden;rotatable=0;points=[[0,0.5],[1,0.5]];portConstraint=eastwest;" parent="JkOQcNX3NpkATMXgRWnM-1" vertex="1">
          <mxGeometry y="52" width="200" height="26" as="geometry" />
        </mxCell>
        <mxCell id="JkOQcNX3NpkATMXgRWnM-4" value="" style="endArrow=none;html=1;edgeStyle=orthogonalEdgeStyle;entryX=0;entryY=0.5;entryDx=0;entryDy=0;exitX=1;exitY=0.5;exitDx=0;exitDy=0;" parent="1" source="JkOQcNX3NpkATMXgRWnM-14" target="JkOQcNX3NpkATMXgRWnM-2" edge="1">
          <mxGeometry relative="1" as="geometry">
            <mxPoint x="210" y="38.5" as="sourcePoint" />
            <mxPoint x="370" y="38.5" as="targetPoint" />
          </mxGeometry>
        </mxCell>
        <mxCell id="JkOQcNX3NpkATMXgRWnM-5" value="parent" style="resizable=0;html=1;align=left;verticalAlign=bottom;labelBackgroundColor=#ffffff;fontSize=10;" parent="JkOQcNX3NpkATMXgRWnM-4" connectable="0" vertex="1">
          <mxGeometry x="-1" relative="1" as="geometry" />
        </mxCell>
        <mxCell id="JkOQcNX3NpkATMXgRWnM-6" value="child" style="resizable=0;html=1;align=right;verticalAlign=bottom;labelBackgroundColor=#ffffff;fontSize=10;" parent="JkOQcNX3NpkATMXgRWnM-4" connectable="0" vertex="1">
          <mxGeometry x="1" relative="1" as="geometry" />
        </mxCell>
        <mxCell id="JkOQcNX3NpkATMXgRWnM-7" value="" style="endArrow=none;html=1;edgeStyle=orthogonalEdgeStyle;entryX=0;entryY=0.5;entryDx=0;entryDy=0;exitX=1.012;exitY=0.923;exitDx=0;exitDy=0;exitPerimeter=0;" parent="1" source="JkOQcNX3NpkATMXgRWnM-14" target="JkOQcNX3NpkATMXgRWnM-11" edge="1">
          <mxGeometry relative="1" as="geometry">
            <mxPoint x="170" y="158.5" as="sourcePoint" />
            <mxPoint x="330" y="158.5" as="targetPoint" />
          </mxGeometry>
        </mxCell>
        <mxCell id="JkOQcNX3NpkATMXgRWnM-8" value="parent" style="resizable=0;html=1;align=left;verticalAlign=bottom;labelBackgroundColor=#ffffff;fontSize=10;" parent="JkOQcNX3NpkATMXgRWnM-7" connectable="0" vertex="1">
          <mxGeometry x="-1" relative="1" as="geometry" />
        </mxCell>
        <mxCell id="JkOQcNX3NpkATMXgRWnM-9" value="child" style="resizable=0;html=1;align=right;verticalAlign=bottom;labelBackgroundColor=#ffffff;fontSize=10;" parent="JkOQcNX3NpkATMXgRWnM-7" connectable="0" vertex="1">
          <mxGeometry x="1" relative="1" as="geometry" />
        </mxCell>
        <mxCell id="JkOQcNX3NpkATMXgRWnM-10" value="TEXT" style="swimlane;fontStyle=0;childLayout=stackLayout;horizontal=1;startSize=26;fillColor=none;horizontalStack=0;resizeParent=1;resizeParentMax=0;resizeLast=0;collapsible=1;marginBottom=0;" parent="1" vertex="1">
          <mxGeometry x="380" y="150" width="200" height="78" as="geometry" />
        </mxCell>
        <mxCell id="JkOQcNX3NpkATMXgRWnM-11" value="+ Text: String" style="text;strokeColor=none;fillColor=none;align=left;verticalAlign=top;spacingLeft=4;spacingRight=4;overflow=hidden;rotatable=0;points=[[0,0.5],[1,0.5]];portConstraint=eastwest;" parent="JkOQcNX3NpkATMXgRWnM-10" vertex="1">
          <mxGeometry y="26" width="200" height="26" as="geometry" />
        </mxCell>
        <mxCell id="JkOQcNX3NpkATMXgRWnM-12" value="+ Key: char1" style="text;strokeColor=none;fillColor=none;align=left;verticalAlign=top;spacingLeft=4;spacingRight=4;overflow=hidden;rotatable=0;points=[[0,0.5],[1,0.5]];portConstraint=eastwest;" parent="JkOQcNX3NpkATMXgRWnM-10" vertex="1">
          <mxGeometry y="52" width="200" height="26" as="geometry" />
        </mxCell>
        <mxCell id="JkOQcNX3NpkATMXgRWnM-13" value="Header" style="swimlane;fontStyle=0;childLayout=stackLayout;horizontal=1;startSize=26;fillColor=none;horizontalStack=0;resizeParent=1;resizeParentMax=0;resizeLast=0;collapsible=1;marginBottom=0;" parent="1" vertex="1">
          <mxGeometry x="30" y="72" width="200" height="78" as="geometry" />
        </mxCell>
        <mxCell id="JkOQcNX3NpkATMXgRWnM-14" value="+ Key: char1" style="text;strokeColor=none;fillColor=none;align=left;verticalAlign=top;spacingLeft=4;spacingRight=4;overflow=hidden;rotatable=0;points=[[0,0.5],[1,0.5]];portConstraint=eastwest;" parent="JkOQcNX3NpkATMXgRWnM-13" vertex="1">
          <mxGeometry y="26" width="200" height="26" as="geometry" />
        </mxCell>
        <mxCell id="JkOQcNX3NpkATMXgRWnM-15" value="+ ServiceOrderNumber: aufnr" style="text;strokeColor=none;fillColor=none;align=left;verticalAlign=top;spacingLeft=4;spacingRight=4;overflow=hidden;rotatable=0;points=[[0,0.5],[1,0.5]];portConstraint=eastwest;" parent="JkOQcNX3NpkATMXgRWnM-13" vertex="1">
          <mxGeometry y="52" width="200" height="26" as="geometry" />
        </mxCell>
        <mxCell id="p10GzBJht2STQ9-uH-NW-1" value="AttachStream" style="swimlane;fontStyle=0;childLayout=stackLayout;horizontal=1;startSize=26;fillColor=none;horizontalStack=0;resizeParent=1;resizeParentMax=0;resizeLast=0;collapsible=1;marginBottom=0;" vertex="1" parent="1">
          <mxGeometry x="50" y="280" width="140" height="104" as="geometry" />
        </mxCell>
        <mxCell id="p10GzBJht2STQ9-uH-NW-2" value="+ FileName: type" style="text;strokeColor=none;fillColor=none;align=left;verticalAlign=top;spacingLeft=4;spacingRight=4;overflow=hidden;rotatable=0;points=[[0,0.5],[1,0.5]];portConstraint=eastwest;" vertex="1" parent="p10GzBJht2STQ9-uH-NW-1">
          <mxGeometry y="26" width="140" height="26" as="geometry" />
        </mxCell>
        <mxCell id="p10GzBJht2STQ9-uH-NW-3" value="+ FileType: type" style="text;strokeColor=none;fillColor=none;align=left;verticalAlign=top;spacingLeft=4;spacingRight=4;overflow=hidden;rotatable=0;points=[[0,0.5],[1,0.5]];portConstraint=eastwest;" vertex="1" parent="p10GzBJht2STQ9-uH-NW-1">
          <mxGeometry y="52" width="140" height="26" as="geometry" />
        </mxCell>
        <mxCell id="p10GzBJht2STQ9-uH-NW-4" value="+ FileConten: type" style="text;strokeColor=none;fillColor=none;align=left;verticalAlign=top;spacingLeft=4;spacingRight=4;overflow=hidden;rotatable=0;points=[[0,0.5],[1,0.5]];portConstraint=eastwest;" vertex="1" parent="p10GzBJht2STQ9-uH-NW-1">
          <mxGeometry y="78" width="140" height="26" as="geometry" />
        </mxCell>
      </root>
    </mxGraphModel>
  </diagram>
</mxfile>
